<svg width="17" height="17" viewBox="0 0 17 17" fill="none" xmlns="http://www.w3.org/2000/svg">
<path d="M10.8003 11.607L11.9903 10.417C12.1506 10.2587 12.3534 10.1503 12.574 10.1051C12.7947 10.0598 13.0238 10.0796 13.2334 10.162L14.6837 10.741C14.8956 10.827 15.0773 10.9738 15.2059 11.1629C15.3344 11.352 15.4042 11.5749 15.4062 11.8035V14.4598C15.405 14.6153 15.3723 14.769 15.3101 14.9116C15.2479 15.0542 15.1575 15.1827 15.0444 15.2894C14.9312 15.3961 14.7976 15.4788 14.6516 15.5325C14.5057 15.5862 14.3503 15.6099 14.195 15.602C4.03218 14.9698 1.98156 6.36354 1.59374 3.06979C1.57574 2.90805 1.59219 2.74432 1.64201 2.58939C1.69183 2.43446 1.77388 2.29183 1.88278 2.17088C1.99168 2.04994 2.12495 1.95343 2.27383 1.88769C2.42271 1.82195 2.58382 1.78848 2.74656 1.78948H5.31249C5.54147 1.79016 5.765 1.85932 5.95435 1.98808C6.14369 2.11683 6.29019 2.29929 6.37499 2.51198L6.95406 3.96229C7.03919 4.17111 7.06091 4.40038 7.01651 4.62147C6.9721 4.84256 6.86353 5.04567 6.70437 5.20542L5.51437 6.39542C5.51437 6.39542 6.19968 11.0332 10.8003 11.607Z" fill="black"/>
</svg>
