<svg width="30" height="20" viewBox="0 0 30 20" fill="none" xmlns="http://www.w3.org/2000/svg">
<path fill-rule="evenodd" clip-rule="evenodd" d="M29.3119 1.35429C29.5194 0.574286 29.3119 0 28.3182 0H25.037C24.202 0 23.817 0.495714 23.6083 1.04286C23.6083 1.04286 21.9395 5.60857 19.5758 8.57429C18.8109 9.43429 18.4634 9.70714 18.0459 9.70714C17.8371 9.70714 17.5234 9.43429 17.5234 8.65286V1.35429C17.5234 0.417143 17.2934 0 16.5984 0H11.4385C10.9173 0 10.6035 0.434286 10.6035 0.847143C10.6035 1.73429 11.786 1.94 11.9073 4.43714V9.86286C11.9073 11.0529 11.716 11.2686 11.2985 11.2686C10.186 11.2686 7.47984 6.68143 5.87363 1.43286C5.56238 0.411428 5.24739 0 4.40866 0H1.12498C0.187496 0 0 0.495714 0 1.04286C0 2.01714 1.11248 6.85714 5.18114 13.2586C7.89358 17.63 11.7123 20 15.1909 20C17.2771 20 17.5346 19.4743 17.5346 18.5671V15.2629C17.5346 14.21 17.7321 14 18.3934 14C18.8809 14 19.7146 14.2743 21.662 16.3814C23.887 18.88 24.2532 20 25.5057 20H28.7869C29.7244 20 30.1944 19.4743 29.9244 18.4343C29.6269 17.4 28.5644 15.8986 27.1557 14.1171C26.3907 13.1029 25.2432 12.01 24.8945 11.4629C24.4082 10.7614 24.547 10.4486 24.8945 9.82429C24.8945 9.82429 28.8944 3.50143 29.3106 1.35429H29.3119Z" fill="#373737"/>
</svg>
